<?xml version="1.0" standalone="no"?>
<!DOCTYPE svg PUBLIC "-//W3C//DTD SVG 20010904//EN"
 "http://www.w3.org/TR/2001/REC-SVG-20010904/DTD/svg10.dtd">
<svg version="1.0" xmlns="http://www.w3.org/2000/svg"
 width="280.000000pt" height="280.000000pt" viewBox="0 0 280.000000 280.000000"
 preserveAspectRatio="xMidYMid meet">
<metadata>
Created by potrace 1.11, written by Peter Selinger 2001-2013
</metadata>
<g transform="translate(0.000000,280.000000) scale(0.100000,-0.100000)"
fill="#000000" stroke="none">
<path d="M1279 2255 c-3 -2 -16 -6 -30 -8 -17 -3 -24 -10 -23 -24 1 -15 -5
-20 -20 -18 -27 2 -41 -6 -27 -15 9 -5 7 -11 -5 -21 -10 -8 -15 -9 -11 -2 4 6
3 15 -3 18 -6 4 -10 3 -9 -2 3 -20 -2 -34 -11 -28 -5 3 -7 0 -4 -9 3 -9 -3
-19 -16 -26 -14 -8 -19 -17 -15 -28 3 -9 3 -13 -1 -10 -11 12 -46 -12 -40 -28
3 -7 2 -13 -2 -13 -21 3 -31 -3 -34 -23 -2 -16 -9 -22 -21 -20 -10 2 -17 -2
-16 -10 3 -24 -1 -39 -9 -34 -4 2 -14 1 -22 -5 -13 -7 -13 -9 0 -9 12 -1 12
-2 -2 -10 -9 -6 -15 -19 -13 -30 2 -11 -1 -23 -7 -26 -6 -4 -9 -3 -6 2 3 5 2
18 -3 29 -7 17 -8 17 -8 -7 -1 -24 -9 -32 -32 -30 -6 1 -8 -9 -11 -52 -1 -17
-7 -23 -20 -21 -13 3 -18 -2 -18 -21 0 -18 -5 -24 -21 -24 -14 0 -19 -5 -16
-15 4 -8 2 -17 -3 -20 -5 -3 -7 -15 -5 -27 3 -11 1 -17 -3 -14 -4 4 -7 12 -7
17 0 5 -4 10 -10 12 -5 1 -10 -14 -11 -33 -2 -46 -3 -47 -13 -31 -6 10 -12 4
-21 -23 -6 -19 -16 -35 -22 -33 -6 1 -14 -9 -17 -22 -4 -14 -13 -27 -20 -29
-9 -3 -11 0 -6 8 6 9 4 11 -4 6 -7 -5 -10 -14 -7 -22 3 -7 -4 -18 -14 -24 -11
-6 -20 -16 -19 -23 0 -9 2 -9 6 1 5 14 23 16 23 3 0 -5 -9 -13 -20 -16 -11 -4
-20 -15 -20 -27 0 -13 -5 -18 -14 -15 -8 3 -17 -1 -20 -9 -3 -8 -2 -12 4 -9 5
3 3 -7 -5 -21 -8 -15 -11 -32 -8 -37 4 -6 -1 -8 -10 -4 -16 6 -21 -3 -18 -30
1 -7 -5 -13 -14 -13 -8 0 -20 -11 -25 -25 -12 -30 -40 -23 -40 10 0 18 -4 22
-20 18 -15 -4 -19 -2 -14 10 3 8 1 18 -4 21 -6 3 -8 15 -5 26 5 18 -5 25 -30
21 -5 -1 -7 9 -5 21 2 17 -2 23 -14 22 -23 -2 -23 5 -1 23 10 8 12 11 5 8 -7
-4 -23 1 -34 12 -12 10 -18 12 -13 4 5 -9 3 -12 -6 -9 -8 3 -13 10 -12 16 1 5
-4 15 -12 22 -11 9 -12 7 -8 -9 5 -20 1 -21 -60 -12 -5 0 -6 5 -3 9 2 4 -4 9
-15 9 -18 2 -18 0 3 -17 l23 -18 -25 -1 c-14 -1 -37 -2 -51 -4 l-26 -2 26 -28
c31 -32 35 -34 21 -8 -7 14 -7 22 0 26 6 4 9 1 8 -6 -2 -9 13 -14 47 -16 62
-4 76 -9 73 -24 -2 -7 6 -15 17 -18 11 -3 20 -15 20 -26 0 -11 7 -21 15 -21 8
-1 19 -2 24 -3 5 0 4 -7 -2 -14 -6 -7 -7 -18 -2 -26 4 -8 6 -24 4 -36 -3 -15
2 -25 12 -29 14 -5 15 -4 5 8 -9 10 -8 15 2 19 9 3 14 -6 16 -27 6 -53 1 -149
-6 -128 -4 9 -9 10 -18 2 -9 -8 -12 -6 -12 7 0 34 -3 43 -14 43 -5 0 -8 -4 -5
-8 2 -4 0 -14 -6 -22 -8 -12 -9 -12 -4 2 3 10 1 20 -4 23 -6 4 -10 11 -10 16
0 6 5 7 11 3 8 -4 8 -1 0 14 -6 12 -11 25 -10 29 3 20 -2 24 -16 13 -12 -10
-15 -10 -15 0 0 7 8 19 18 26 16 13 16 14 0 8 -14 -5 -18 -1 -18 20 0 19 -5
26 -20 26 -13 0 -20 7 -20 20 0 13 -7 20 -20 20 -14 0 -20 7 -20 21 0 14 -5
19 -15 16 -8 -4 -17 -2 -20 3 -3 5 -12 7 -21 3 -8 -3 -14 -2 -13 3 3 15 -12
44 -24 44 -5 0 -2 -9 8 -20 14 -15 15 -20 4 -20 -12 0 -12 -2 0 -9 8 -5 11
-16 7 -26 -5 -14 -2 -17 17 -13 20 4 23 1 19 -23 -4 -24 -1 -27 17 -22 19 5
21 1 21 -36 0 -33 3 -41 16 -39 10 2 19 -3 21 -9 3 -7 -1 -13 -9 -13 -10 0
-10 -2 -1 -8 6 -4 13 -28 14 -54 2 -37 6 -46 19 -43 13 3 17 -5 18 -37 1 -21
9 -46 17 -54 13 -14 13 -34 -1 -34 -3 0 -3 4 1 9 3 5 1 12 -5 16 -6 4 -10 -7
-10 -27 0 -35 -11 -60 -26 -59 -4 1 -10 -11 -12 -26 -4 -29 -8 -37 -23 -39 -5
-1 -12 -2 -15 -3 -4 0 0 -9 7 -18 10 -11 10 -14 2 -9 -12 6 -19 -18 -14 -47 1
-4 -7 -7 -16 -5 -11 2 -18 -4 -20 -17 -6 -59 -8 -65 -20 -61 -7 3 -15 1 -18
-4 -4 -6 0 -10 7 -10 8 0 9 -3 3 -8 -6 -4 -11 -18 -10 -32 0 -16 -7 -27 -19
-30 -16 -5 -20 -16 -22 -68 -1 -34 2 -60 6 -57 5 3 13 -3 19 -12 10 -17 10
-17 11 1 0 12 5 16 16 12 8 -3 24 -1 34 4 13 7 20 6 23 -3 4 -8 6 -8 6 0 1 6
11 9 23 6 22 -4 22 -4 -2 12 l-25 16 24 -7 c13 -3 21 -2 18 2 -3 5 14 9 36 9
25 0 47 6 55 15 8 8 11 10 8 3 -4 -8 4 -11 24 -11 16 1 30 5 30 10 0 5 5 6 10
3 6 -3 13 0 15 8 4 8 23 14 55 14 27 1 54 4 60 8 5 3 10 1 10 -5 0 -6 8 -10
17 -8 10 2 19 -5 22 -20 3 -13 9 -23 14 -23 23 2 27 -1 27 -19 0 -12 6 -20 13
-19 6 1 21 1 32 0 17 -1 17 -3 5 -11 -12 -7 -12 -12 -2 -22 9 -9 12 -9 12 2 0
11 3 11 12 2 7 -7 21 -12 31 -12 17 0 18 -2 6 -17 -10 -11 -10 -14 -1 -9 6 4
12 3 12 -2 0 -6 6 -10 13 -9 41 1 57 -4 57 -21 0 -14 9 -18 38 -19 115 -4 142
-6 142 -13 0 -4 -13 -6 -29 -5 -21 1 -28 -2 -24 -12 4 -10 9 -11 16 -4 13 13
30 15 23 3 -3 -5 1 -9 9 -9 8 0 15 4 15 9 0 5 9 4 20 -2 16 -9 20 -8 20 5 0 9
-4 14 -8 11 -4 -2 -14 -1 -21 3 -8 5 1 8 22 7 23 -1 32 -5 26 -10 -5 -6 -9
-13 -9 -17 0 -9 27 -5 37 6 4 4 2 5 -4 1 -9 -5 -11 -2 -6 10 5 14 8 13 19 -7
7 -13 13 -18 14 -10 0 10 3 11 13 2 11 -8 18 -6 33 10 10 11 26 18 36 16 10
-3 18 -2 18 2 0 4 12 6 28 6 15 -1 35 3 45 7 11 6 17 5 17 -3 0 -7 3 -9 6 -6
4 4 1 15 -7 24 -7 10 -10 15 -5 11 4 -3 21 -2 37 2 19 6 29 5 29 -2 0 -6 6 -6
15 2 8 7 15 9 15 4 0 -4 5 -3 12 4 16 16 41 16 32 0 -5 -9 -2 -9 9 1 20 16 22
22 6 19 -6 -2 -13 2 -16 8 -2 7 6 10 22 9 14 -2 27 1 31 6 3 5 10 9 15 9 6 0
7 -6 3 -13 -5 -8 -3 -8 9 2 15 12 15 31 1 31 -3 0 -2 -5 2 -12 4 -7 3 -8 -5
-4 -6 4 -9 12 -5 17 3 5 10 7 15 4 5 -4 9 0 9 7 0 8 3 9 8 3 8 -12 27 -13 37
-3 4 4 13 4 21 1 9 -3 14 2 14 13 0 11 -4 15 -8 9 -11 -16 -32 -16 -26 -1 3 9
19 13 40 12 20 -1 41 2 47 7 8 6 7 7 -4 4 -13 -4 -15 -1 -12 14 3 10 10 19 15
19 5 0 6 -4 3 -10 -3 -5 -1 -10 4 -10 6 0 11 5 11 10 0 6 8 10 18 10 10 0 24
6 31 13 11 9 12 9 7 0 -5 -9 2 -12 24 -9 17 2 32 0 35 -4 2 -4 17 -5 31 -2 18
3 25 1 20 -6 -3 -6 -2 -14 4 -17 6 -4 9 -1 8 6 -2 8 9 13 28 14 18 0 31 -4 31
-12 0 -7 -4 -10 -9 -7 -4 3 -8 0 -8 -7 0 -7 10 -9 25 -7 14 3 25 1 25 -4 0 -6
6 -8 14 -5 8 3 20 -1 26 -9 17 -19 30 -18 31 4 1 11 3 9 8 -7 6 -21 12 -24 56
-25 37 0 50 4 50 14 0 8 3 17 7 20 9 7 -2 60 -13 60 -5 0 -9 -6 -9 -12 0 -9
-3 -8 -10 2 -5 9 -5 19 0 26 6 6 7 14 3 18 -6 6 -13 70 -14 120 0 15 -2 16
-12 5 -7 -8 -11 -13 -11 -11 1 2 -2 18 -6 36 -4 19 -4 40 1 47 4 7 3 19 -3 26
-6 7 -8 14 -4 14 3 1 11 3 16 4 6 1 14 3 19 4 5 0 12 9 15 19 4 10 13 19 21
20 8 1 21 3 28 4 8 1 14 7 14 15 0 9 -4 10 -13 2 -9 -7 -14 -6 -20 3 -4 7 -4
10 0 6 4 -3 19 0 33 7 15 8 30 12 33 10 4 -2 7 2 7 10 0 11 -4 12 -13 4 -8 -7
-14 -7 -19 1 -3 5 -5 10 -3 11 2 0 12 3 23 5 11 3 29 5 40 5 16 0 17 2 5 9
-11 7 -11 10 -2 10 7 0 11 4 8 9 -3 5 2 15 11 22 14 12 16 12 8 -1 -8 -13 -7
-13 9 -1 13 11 14 16 4 22 -10 7 -9 9 5 10 37 3 42 5 39 18 -1 7 7 15 18 18
11 3 20 10 20 17 0 6 5 4 10 -4 5 -8 10 -10 10 -4 0 5 -6 16 -12 23 -11 11 -9
13 10 8 12 -3 23 -1 23 4 1 5 3 14 4 19 1 6 3 14 4 19 0 5 9 8 19 7 13 -1 16
5 14 24 -2 23 -2 24 11 7 14 -16 15 -16 22 5 4 13 7 30 6 38 -1 11 3 9 15 -5
l16 -20 -4 20 c-2 13 2 19 11 17 12 -3 12 0 1 12 -8 11 -9 16 -1 17 6 1 17 2
24 3 6 0 12 6 12 11 0 17 16 36 25 30 5 -3 11 -1 15 4 3 6 13 7 23 4 15 -6 16
-5 2 12 -9 11 -10 16 -2 11 7 -4 12 -2 12 6 0 8 -6 20 -12 27 -10 11 -10 13 0
7 6 -4 12 -3 12 2 0 12 -59 22 -66 11 -5 -8 -37 -5 -54 6 -6 3 -7 -1 -4 -9 3
-9 10 -13 15 -10 5 3 9 -1 9 -8 0 -8 3 -9 8 -3 10 14 48 13 63 -2 9 -9 8 -11
-2 -10 -8 2 -19 6 -24 9 -6 4 -17 3 -25 -2 -8 -5 -21 -5 -31 0 -9 5 -20 6 -23
2 -13 -13 -94 -9 -89 4 3 7 13 12 23 11 10 -1 16 -6 12 -12 -3 -5 2 -4 11 4
11 9 17 10 17 2 0 -6 5 -11 11 -11 5 0 7 5 3 12 -5 7 -3 8 6 3 8 -5 11 -4 7 2
-4 5 -19 9 -34 8 -15 -1 -36 2 -47 8 -10 5 -16 5 -13 0 3 -4 0 -15 -6 -24 -14
-17 -54 -20 -54 -3 0 6 11 10 24 8 13 -1 23 2 23 6 0 5 -13 8 -30 8 -22 -1
-30 -6 -30 -20 0 -12 -7 -18 -24 -18 -14 0 -28 -4 -31 -10 -3 -5 -1 -10 4 -10
6 0 11 -5 11 -11 0 -5 -10 -9 -22 -7 -18 2 -23 -2 -22 -19 1 -13 -3 -23 -7
-23 -5 0 -9 7 -9 15 0 8 -4 15 -10 15 -5 0 -7 -6 -4 -14 3 -8 0 -17 -5 -21 -6
-3 -9 -10 -6 -15 3 -5 1 -11 -4 -15 -6 -3 -8 3 -6 14 2 13 -1 18 -9 15 -6 -2
-13 -16 -14 -30 -3 -37 -11 -47 -28 -33 -12 10 -13 9 -8 -4 4 -12 1 -14 -14
-10 -12 3 -22 -1 -25 -11 -5 -12 0 -16 16 -17 14 -1 9 -4 -15 -11 -29 -8 -38
-15 -38 -31 0 -18 -2 -19 -10 -7 -7 11 -10 11 -10 2 0 -7 -4 -10 -10 -7 -10 6
-14 -8 -10 -34 1 -11 -1 -12 -12 -4 -16 14 -36 -5 -32 -30 2 -14 -1 -15 -10
-8 -7 6 -17 7 -21 3 -5 -4 -5 -1 -1 6 4 7 13 10 19 6 7 -3 5 0 -4 8 -9 7 -16
30 -17 52 -1 30 3 39 18 43 12 3 19 12 18 21 -2 9 3 17 10 18 6 1 17 2 22 3 6
0 10 10 10 22 0 13 4 18 12 13 8 -5 9 -2 4 11 -5 15 -4 16 9 5 12 -10 15 -10
15 3 0 17 33 40 43 31 3 -3 3 3 0 15 -4 17 -1 21 21 21 23 0 25 3 17 23 -7 18
-6 24 4 24 8 0 12 -3 10 -7 -2 -3 0 -12 4 -18 5 -8 8 2 9 24 1 20 -1 34 -5 31
-3 -4 -13 -2 -23 3 -10 5 -20 6 -24 2 -11 -10 -80 -8 -88 3 -5 7 -8 6 -8 0 0
-7 -23 -9 -60 -7 -55 3 -59 2 -55 -17 3 -16 -1 -21 -19 -21 -16 0 -23 -5 -22
-17 0 -10 -7 -19 -16 -21 -14 -3 -18 3 -18 23 0 20 -4 26 -15 22 -8 -4 -17 -1
-21 5 -4 7 -3 8 4 4 7 -4 12 -2 12 4 0 6 4 9 8 6 5 -3 9 1 9 9 0 11 -4 12 -13
4 -17 -14 -24 0 -26 50 -1 30 -4 38 -13 31 -17 -14 -25 -2 -25 36 0 23 -6 37
-19 44 -11 5 -20 19 -20 30 -1 11 -1 29 -2 41 0 14 -5 19 -15 15 -8 -3 -15 0
-15 7 -1 7 -2 17 -4 22 -1 6 -3 16 -3 23 -1 6 -7 12 -13 12 -5 0 -7 -4 -4 -10
3 -5 1 -10 -5 -10 -6 0 -10 6 -9 13 5 43 -2 67 -21 67 -19 0 -27 25 -20 69 1
8 -4 12 -13 8 -11 -4 -19 4 -26 24 -6 17 -15 28 -21 24 -5 -3 -11 -1 -11 4 -3
21 -4 26 -12 39 -5 7 -12 10 -17 7 -5 -3 -7 3 -5 15 2 11 -1 22 -6 25 -5 4 -7
11 -3 16 3 6 -3 13 -15 16 -12 3 -21 13 -21 24 0 17 -11 24 -32 20 -7 -1 -13
48 -9 72 2 11 -14 8 -28 -5 -8 -7 -11 -8 -8 -2 4 6 -5 16 -20 23 -14 6 -23 14
-20 18 4 3 13 0 22 -7 8 -7 15 -8 15 -2 0 14 -25 33 -33 25 -4 -3 -8 -1 -8 5
-3 26 -4 31 -11 38 -4 3 -6 -3 -3 -14 2 -12 -2 -25 -8 -28 -7 -4 -9 -4 -5 1
11 12 -12 47 -27 42 -7 -3 -17 -1 -22 4 -5 5 -12 7 -14 4z m-369 -410 c-7 -9
-15 -13 -19 -10 -3 3 1 10 9 15 21 14 24 12 10 -5z m717 1 c0 -8 -6 -12 -15
-9 -11 5 -11 7 0 14 7 5 13 9 14 9 0 0 1 -6 1 -14z m107 -201 c-4 -8 -11 -12
-16 -9 -6 4 -5 10 3 15 19 12 19 11 13 -6z m46 -85 c0 -5 -4 -10 -9 -10 -6 0
-13 5 -16 10 -3 6 1 10 9 10 9 0 16 -4 16 -10z m264 -158 c3 -5 -1 -9 -9 -9
-8 0 -12 4 -9 9 3 4 7 8 9 8 2 0 6 -4 9 -8z m-1854 -36 c0 -3 -4 -8 -10 -11
-5 -3 -10 -1 -10 4 0 6 5 11 10 11 6 0 10 -2 10 -4z m114 -241 c-7 -16 -24
-21 -24 -6 0 8 7 13 27 20 1 1 0 -6 -3 -14z m1 -233 c-3 -3 -11 0 -18 7 -9 10
-8 11 6 5 10 -3 15 -9 12 -12z m608 -269 c-4 -10 -9 -11 -16 -4 -6 6 -16 11
-21 11 -6 0 -4 -5 4 -10 12 -7 10 -9 -7 -7 -12 0 -19 5 -17 9 3 4 -2 5 -10 2
-9 -3 -16 -2 -16 3 0 5 20 9 44 9 34 1 43 -3 39 -13z m67 5 c0 -5 -5 -6 -12
-2 -7 4 -8 3 -4 -4 4 -7 3 -12 -3 -12 -5 0 -12 6 -14 13 -4 9 -6 9 -6 0 -2
-22 22 -26 38 -7 14 17 32 20 150 22 96 1 138 -1 149 -10 12 -10 14 -10 9 -1
-6 9 1 12 22 10 16 -1 27 -6 24 -10 -3 -5 -12 -6 -20 -2 -13 4 -14 3 -4 -9 11
-13 9 -15 -9 -11 -18 3 -20 0 -15 -18 6 -21 6 -22 -9 -3 -16 20 -16 20 -16 0
0 -18 -8 -20 -77 -23 -178 -9 -382 -1 -380 14 1 5 10 16 21 24 15 12 19 12 27
0 5 -8 9 -9 9 -3 0 6 16 10 35 9 18 -1 34 1 33 4 -2 21 5 29 27 29 14 0 25 -5
25 -10z m-540 -79 c0 -5 -3 -8 -7 -8 -5 1 -10 0 -13 -1 -20 -7 -37 -6 -37 4 0
6 13 12 29 13 15 0 28 -3 28 -8z m1710 -49 c0 -5 -5 -10 -11 -10 -5 0 -7 5 -4
10 3 6 8 10 11 10 2 0 4 -4 4 -10z m-700 -74 c0 -2 -7 -7 -16 -10 -8 -3 -12
-2 -9 4 6 10 25 14 25 6z m-270 -86 c-9 -17 -14 -18 -31 -7 -19 11 -18 12 8
18 15 4 29 7 31 8 1 0 -2 -8 -8 -19z"/>
<path d="M825 589 c-4 -6 -5 -12 -2 -15 2 -3 7 2 10 11 7 17 1 20 -8 4z"/>
<path d="M1215 580 c3 -5 8 -10 11 -10 2 0 4 5 4 10 0 6 -5 10 -11 10 -5 0 -7
-4 -4 -10z"/>
<path d="M1110 2140 c0 -5 5 -10 11 -10 5 0 7 5 4 10 -3 6 -8 10 -11 10 -2 0
-4 -4 -4 -10z"/>
<path d="M1076 2103 c-6 -14 -5 -15 5 -6 7 7 10 15 7 18 -3 3 -9 -2 -12 -12z"/>
<path d="M1467 2105 c3 -8 9 -12 14 -9 12 7 11 11 -5 17 -10 4 -13 1 -9 -8z"/>
<path d="M1545 1980 c3 -5 11 -10 16 -10 6 0 7 5 4 10 -3 6 -11 10 -16 10 -6
0 -7 -4 -4 -10z"/>
<path d="M247 1503 c-13 -12 -7 -22 12 -20 15 1 17 4 9 14 -12 15 -13 15 -21
6z"/>
<path d="M116 1407 c3 -10 9 -15 12 -12 3 3 0 11 -7 18 -10 9 -11 8 -5 -6z"/>
<path d="M360 1320 c-8 -5 -12 -12 -9 -15 4 -3 12 1 19 10 14 17 11 19 -10 5z"/>
<path d="M2606 1321 c-4 -5 -2 -12 3 -15 5 -4 12 -2 15 3 4 5 2 12 -3 15 -5 4
-12 2 -15 -3z"/>
<path d="M2186 1247 c3 -10 9 -15 12 -12 3 3 0 11 -7 18 -10 9 -11 8 -5 -6z"/>
<path d="M2150 585 c-11 -13 -10 -14 4 -9 9 3 16 10 16 15 0 13 -6 11 -20 -6z"/>
<path d="M1905 541 c-3 -5 -2 -12 3 -15 5 -3 9 1 9 9 0 17 -3 19 -12 6z"/>
</g>
</svg>
